<svg width="22" height="20" viewBox="0 0 22 20" fill="none" xmlns="http://www.w3.org/2000/svg">
<path d="M8.62413 19.4625C13.1236 19.4625 16.7712 15.8149 16.7712 11.3154C16.7712 6.81591 13.1236 3.16833 8.62413 3.16833C4.12462 3.16833 0.477051 6.81591 0.477051 11.3154C0.477051 15.8149 4.12462 19.4625 8.62413 19.4625Z" fill="#B0EF8F"/>
<path d="M8.71605 17.6125L8.61271 17.4364C7.03425 14.747 2.83969 9.03974 2.79732 8.98241L2.73682 8.90021L4.16588 7.48791L8.68951 10.6466C11.5377 6.95068 14.1949 4.41212 15.9281 2.92971C17.8242 1.30809 19.0584 0.561552 19.0708 0.554398L19.0989 0.537598H21.523L21.2914 0.743813C15.3363 6.04809 8.88146 17.3218 8.81717 17.4351L8.71605 17.6125Z" fill="#009045"/>
</svg>
